# xmcd
#
# Track frame offsets:
#	182
#	15175
#	32882
#
# Disc length: 624 seconds
#
# Revision: 1
# Processed by: cddbd v1.4b42PL1 Copyright (c) Steve Scherf et al.
# Submitted via: audiograbber 1.80
#
DISCID=15026e03
DTITLE=Truck Stop - Emmylou, Emmylou (Maxi-CD)
DYEAR=1900
DGENRE=
TTITLE0=Emmylou, Emmylou
TTITLE1=Eddie's Big Truck
TTITLE2=Heute ist wieder so ein Tag
EXTD=
EXTT0=
EXTT1=
EXTT2=
PLAYORDER=
